<svg width="20" height="20" viewBox="0 0 20 20" fill="none" xmlns="http://www.w3.org/2000/svg">
<path d="M10.0166 2.425C7.25828 2.425 5.01662 4.66667 5.01662 7.425V9.83333C5.01662 10.3417 4.79995 11.1167 4.54162 11.55L3.58328 13.1417C2.99162 14.125 3.39995 15.2167 4.48328 15.5833C8.07495 16.7833 11.95 16.7833 15.5416 15.5833C16.55 15.25 16.9916 14.0583 16.4416 13.1417L15.4833 11.55C15.2333 11.1167 15.0166 10.3417 15.0166 9.83333V7.425C15.0166 4.675 12.7666 2.425 10.0166 2.425Z" stroke="#0A090B" stroke-width="2" stroke-miterlimit="10" stroke-linecap="round"/>
<path d="M11.5583 2.66666C11.3 2.59166 11.0333 2.53333 10.7583 2.5C9.95831 2.4 9.19164 2.45833 8.47498 2.66666C8.71664 2.05 9.31664 1.61666 10.0166 1.61666C10.7166 1.61666 11.3166 2.05 11.5583 2.66666Z" stroke="#0A090B" stroke-width="2" stroke-miterlimit="10" stroke-linecap="round" stroke-linejoin="round"/>
<path d="M12.5167 15.8833C12.5167 17.2583 11.3917 18.3833 10.0167 18.3833C9.33339 18.3833 8.70006 18.1 8.25006 17.65C7.80006 17.2 7.51672 16.5667 7.51672 15.8833" stroke="#0A090B" stroke-width="2" stroke-miterlimit="10"/>
</svg>
