<svg width="20" height="20" viewBox="0 0 20 20" fill="none" xmlns="http://www.w3.org/2000/svg">
<path d="M18.3333 5V7.01667C18.3333 8.33334 17.5 9.16667 16.1833 9.16667H13.3333V3.34167C13.3333 2.41667 14.0917 1.66667 15.0167 1.66667C15.925 1.675 16.7583 2.04167 17.3583 2.64167C17.9583 3.25 18.3333 4.08333 18.3333 5Z" stroke="#0A090B" stroke-width="2" stroke-miterlimit="10" stroke-linecap="round" stroke-linejoin="round"/>
<path d="M1.66669 5.83333V17.5C1.66669 18.1917 2.45 18.5833 3 18.1667L4.42502 17.1C4.75835 16.85 5.22502 16.8833 5.52502 17.1833L6.90834 18.575C7.23334 18.9 7.76671 18.9 8.09171 18.575L9.4917 17.175C9.78337 16.8833 10.25 16.85 10.575 17.1L12 18.1667C12.55 18.575 13.3334 18.1833 13.3334 17.5V3.33333C13.3334 2.41667 14.0834 1.66667 15 1.66667H5.83335H5.00002C2.50002 1.66667 1.66669 3.15833 1.66669 5V5.83333Z" stroke="#0A090B" stroke-width="2" stroke-miterlimit="10" stroke-linecap="round" stroke-linejoin="round"/>
<path d="M5 7.5H10" stroke="#0A090B" stroke-width="2" stroke-linecap="round" stroke-linejoin="round"/>
<path d="M5.625 10.8333H9.375" stroke="#0A090B" stroke-width="2" stroke-linecap="round" stroke-linejoin="round"/>
</svg>
