<svg width="36" height="36" viewBox="0 0 36 36" fill="none" xmlns="http://www.w3.org/2000/svg">
<g clip-path="url(#clip0_0_110)">
<path d="M18 0C27.9414 0 36 8.0586 36 18V30.6C36 32.0322 35.4311 33.4057 34.4184 34.4184C33.4057 35.4311 32.0322 36 30.6 36H18.9V28.1034C18.9 26.3016 19.0098 24.435 19.9548 22.9014C20.6314 21.8023 21.5364 20.8617 22.6085 20.1432C23.6806 19.4246 24.8947 18.9451 26.1684 18.7371L26.5131 18.6813C26.6552 18.6327 26.7786 18.5409 26.8659 18.4188C26.9533 18.2966 27.0002 18.1502 27.0002 18C27.0002 17.8498 26.9533 17.7034 26.8659 17.5812C26.7786 17.4591 26.6552 17.3673 26.5131 17.3187L26.1684 17.2629C24.3074 16.9589 22.5888 16.078 21.2554 14.7446C19.922 13.4112 19.0411 11.6926 18.7371 9.8316L18.6813 9.4869C18.6327 9.34479 18.5409 9.22143 18.4188 9.13408C18.2966 9.04673 18.1502 8.99977 18 8.99977C17.8498 8.99977 17.7034 9.04673 17.5812 9.13408C17.4591 9.22143 17.3673 9.34479 17.3187 9.4869L17.2629 9.8316C17.0549 11.1053 16.5754 12.3195 15.8569 13.3916C15.1384 14.4637 14.1977 15.3687 13.0986 16.0452C11.565 16.9902 9.6984 17.1 7.8966 17.1H0.0215988C0.492299 7.5771 8.361 0 18 0Z" fill="#6436F1"/>
<path d="M0 18.9H7.8966C9.6984 18.9 11.565 19.0098 13.0986 19.9548C14.2974 20.6935 15.3065 21.7026 16.0452 22.9014C16.9902 24.435 17.1 26.3016 17.1 28.1034V36H5.4C3.96783 36 2.59432 35.4311 1.58162 34.4184C0.568927 33.4057 0 32.0322 0 30.6L0 18.9ZM36 1.8C36 2.27739 35.8104 2.73523 35.4728 3.07279C35.1352 3.41036 34.6774 3.6 34.2 3.6C33.7226 3.6 33.2648 3.41036 32.9272 3.07279C32.5896 2.73523 32.4 2.27739 32.4 1.8C32.4 1.32261 32.5896 0.864773 32.9272 0.527208C33.2648 0.189642 33.7226 0 34.2 0C34.6774 0 35.1352 0.189642 35.4728 0.527208C35.8104 0.864773 36 1.32261 36 1.8Z" fill="#6436F1"/>
</g>
<defs>
<clipPath id="clip0_0_110">
<rect width="36" height="36" fill="white"/>
</clipPath>
</defs>
</svg>
